Coordinates
version=1
nRows=29
nColumns=24
inDegrees=yes

Units are S.I. units (second, meters, Newtons, ...)
Angles are in degrees.

endheader
time	pelvis_tilt	pelvis_list	pelvis_rotation	pelvis_tx	pelvis_ty	pelvis_tz	hip_flexion_r	hip_adduction_r	hip_rotation_r	knee_angle_r	ankle_angle_r	subtalar_angle_r	mtp_angle_r	hip_flexion_l	hip_adduction_l	hip_rotation_l	knee_angle_l	ankle_angle_l	subtalar_angle_l	mtp_angle_l	lumbar_extension	lumbar_bending	lumbar_rotation
      3.99500000	     -7.53242882	      1.63862899	    360.15078572	      0.34199463	      1.38871770	     -0.99918193	     15.48264453	      2.27436521	      2.86781342	    -14.60016840	     -0.74916474	    -11.40209400	      3.33962074	     19.37702340	      4.01950831	      3.94782701	    -53.96639252	     -2.32371127	      9.38827692	     44.43932918	     -7.84764479	      6.42309907	      8.98152861
      4.00000000	     -7.59273467	      1.80515392	    360.14535258	      0.34693167	      1.38935388	     -0.99864266	     15.09192164	      2.12753583	      2.95274835	    -14.33627630	     -0.57354246	    -11.39078360	      3.28833944	     20.08883882	      4.15776602	      3.81909793	    -53.82437941	     -2.02377635	      9.46505529	     44.14518191	     -7.81002947	      6.17859307	      8.97493252
      4.00500000	     -7.61906733	      1.97392312	    360.15942247	      0.35185530	      1.39000243	     -0.99814895	     14.65789272	      1.96963016	      3.00762039	    -14.05721977	     -0.43672188	    -11.41401650	      3.28940145	     20.73917801	      4.30990422	      3.71871258	    -53.59069681	     -1.75900845	      9.44568060	     44.08814446	     -7.81472440	      5.93357836	      8.94773922
      4.01000000	     -7.66477498	      2.15556673	    360.16180270	      0.35675904	      1.39060299	     -0.99764223	     14.25527659	      1.80090747	      3.07662208	    -13.79422998	     -0.28222913	    -11.40988532	      3.29049944	     21.38947887	      4.47122251	      3.60945875	    -53.28564726	     -1.49594590	      9.44539385	     43.95691800	     -7.79898394	      5.66433904	      8.94643746
      4.01500000	     -7.75801619	      2.31978186	    360.14666826	      0.36167778	      1.39111114	     -0.99719518	     13.91285444	      1.64718439	      3.14334424	    -13.54815740	     -0.06423966	    -11.28749794	      3.23417544	     22.07541980	      4.61235037	      3.48585474	    -52.94185593	     -1.18796651	      9.52036266	     43.42508218	     -7.71384130	      5.42102975	      9.05201718
      4.02000000	     -7.78933977	      2.50197345	    360.15575254	      0.36656251	      1.39165836	     -0.99676082	     13.49652077	      1.46960627	      3.20855165	    -13.28541101	      0.10381759	    -11.25531245	      3.20703341	     22.66387033	      4.78560160	      3.40267716	    -52.49570038	     -0.94269637	      9.50973374	     43.18525651	     -7.71805032	      5.16784625	      9.04536038
      4.02500000	     -7.83662185	      2.67234919	    360.17336916	      0.37144209	      1.39214724	     -0.99637450	     13.10360974	      1.29843425	      3.23232226	    -13.03376291	      0.28464314	    -11.20113470	      3.19652662	     23.25143617	      4.95247485	      3.33229930	    -51.99093674	     -0.68705306	      9.48272736	     42.92467214	     -7.69909318	      4.92052147	      9.07883240
      4.03000000	     -7.87657319	      2.85079139	    360.18977201	      0.37631887	      1.39261448	     -0.99599473	     12.70689810	      1.11793328	      3.25460326	    -12.78852836	      0.47097605	    -11.13742546	      3.19213517	     23.80479798	      5.12838425	      3.26553815	    -51.41254087	     -0.45457638	      9.43863636	     42.63682983	     -7.69038588	      4.66433144	      9.10410635
      4.03500000	     -7.91588631	      3.02104301	    360.21443702	      0.38117040	      1.39302717	     -0.99565474	     12.31548814	      0.94221969	      3.26165108	    -12.55125963	      0.65863033	    -11.07319552	      3.19239259	     24.34139521	      5.30276807	      3.21709834	    -50.78116288	     -0.22696974	      9.38954674	     42.34012508	     -7.68697200	      4.41735628	      9.13508440
      4.04000000	     -7.97233150	      3.19182694	    360.24427191	      0.38602135	      1.39338895	     -0.99533850	     11.94854119	      0.76499986	      3.27733382	    -12.32537823	      0.84112595	    -11.04577836	      3.20813706	     24.87450035	      5.48277311	      3.18702534	    -50.08115262	     -0.05187858	      9.33050557	     42.11520225	     -7.66300474	      4.17676401	      9.14772048
      4.04500000	     -8.00151237	      3.35357590	    360.26711137	      0.39087088	      1.39373063	     -0.99504557	     11.55747448	      0.59432161	      3.25207233	    -12.10764121	      1.03770654	    -10.94168142	      3.22988365	     25.35484042	      5.65261803	      3.15161739	    -49.33103849	      0.16312413	      9.23581288	     41.71292157	     -7.67155486	      3.94158633	      9.20145332
      4.05000000	     -8.05592765	      3.50640123	    360.30426116	      0.39569170	      1.39398443	     -0.99476627	     11.20135216	      0.43491597	      3.25436850	    -11.90272933	      1.22954330	    -10.92482919	      3.25312716	     25.85384434	      5.81822112	      3.14360587	    -48.53410363	      0.29244060	      9.16884824	     41.43978002	     -7.65945563	      3.72240372	      9.20542821
      4.05500000	     -8.12664630	      3.64238349	    360.35091795	      0.40050240	      1.39417360	     -0.99453462	     10.87211020	      0.29030569	      3.23702456	    -11.71284318	      1.36667451	    -10.94996178	      3.26770679	     26.35195385	      5.97507488	      3.16543516	    -47.68451200	      0.48118851	      9.10071769	     41.29191714	     -7.63266060	      3.52799591	      9.21226096
      4.06000000	     -8.16592111	      3.78570000	    360.36387979	      0.40532451	      1.39435844	     -0.99428101	     10.51583111	      0.14086667	      3.24827937	    -11.53517957	      1.60474556	    -10.82418722	      3.33938584	     26.78811302	      6.12793742	      3.15861342	    -46.77848005	      0.54365755	      8.91368353	     40.76803614	     -7.63535918	      3.31096799	      9.28295726
      4.06500000	     -8.24377158	      3.89425064	    360.41636164	      0.41013492	      1.39442686	     -0.99406602	     10.20915908	      0.02750958	      3.21490850	    -11.37425322	      1.75353508	    -10.87560228	      3.35475069	     27.25998885	      6.25379834	      3.19995809	    -45.83841912	      0.68661230	      8.86807996	     40.60489715	     -7.59988352	      3.14305149	      9.28691257
      4.07000000	     -8.24927062	      4.01926342	    360.42813359	      0.41496501	      1.39454819	     -0.99385030	      9.82205091	     -0.10298952	      3.20186626	    -11.20505355	      1.97624116	    -10.77641448	      3.42894503	     27.61640338	      6.38664658	      3.20723249	    -44.83241206	      0.74812672	      8.66773516	     40.02686045	     -7.64623902	      2.95127869	      9.35958009
      4.07500000	     -8.31622069	      4.12418270	    360.45846065	      0.41976741	      1.39452942	     -0.99360958	      9.52029331	     -0.20466601	      3.21376932	    -11.07264321	      2.17086934	    -10.82176207	      3.46515767	     28.03561403	      6.49352622	      3.23867029	    -43.78943259	      0.74858612	      8.57664147	     39.76873315	     -7.62933309	      2.78575584	      9.36961780
      4.08000000	     -8.36848832	      4.22406665	    360.47745367	      0.42458440	      1.39448572	     -0.99339690	      9.20823560	     -0.30208632	      3.22998101	    -10.95005557	      2.36106658	    -10.83797189	      3.51401592	     28.41011942	      6.59602195	      3.27981822	    -42.68784566	      0.74870974	      8.40277824	     39.47950896	     -7.62762649	      2.62159556	      9.41725512
      4.08500000	     -8.41492080	      4.30976081	    360.48937699	      0.42938315	      1.39439437	     -0.99320732	      8.90275550	     -0.38422133	      3.25128660	    -10.84898624	      2.54539571	    -10.83771351	      3.56758124	     28.75625747	      6.68444780	      3.34168657	    -41.53658792	      0.75067127	      8.20598675	     39.18744979	     -7.63689398	      2.47510287	      9.48519771
      4.09000000	     -8.46596110	      4.39573796	    360.49087613	      0.43418684	      1.39424879	     -0.99300037	      8.61225786	     -0.46231716	      3.28214299	    -10.76559462	      2.74585318	    -10.86038263	      3.61733993	     29.08544167	      6.76063135	      3.39013075	    -40.33325238	      0.70156472	      8.00709122	     38.93971673	     -7.64549783	      2.33226158	      9.54827410
      4.09500000	     -8.52425054	      4.47175320	    360.48784995	      0.43899547	      1.39404360	     -0.99279435	      8.34067671	     -0.52775835	      3.31832108	    -10.70454844	      2.95248191	    -10.88747196	      3.66264518	     29.40003792	      6.82167524	      3.44805751	    -39.08005775	      0.62961768	      7.79832135	     38.73485576	     -7.64462129	      2.19490531	      9.61410782
      4.10000000	     -8.58517937	      4.53959998	    360.47571172	      0.44379385	      1.39377765	     -0.99259656	      8.08644388	     -0.58263563	      3.36008362	    -10.66968936	      3.17005745	    -10.91149802	      3.70384393	     29.69540280	      6.86885063	      3.51221059	    -37.77877495	      0.53790381	      7.56201757	     38.55301595	     -7.64366710	      2.06768156	      9.70731798
      4.10500000	     -8.64631280	      4.61102040	    360.44933176	      0.44860479	      1.39347801	     -0.99238261	      7.84367681	     -0.63856610	      3.41177944	    -10.65556705	      3.40054952	    -10.92674606	      3.74094152	     29.96045487	      6.90813181	      3.57057677	    -36.41523107	      0.41837386	      7.30466930	     38.39660591	     -7.64085515	      1.93166716	      9.81258407
      4.11000000	     -8.73383402	      4.67291108	    360.40732213	      0.45339254	      1.39309705	     -0.99216513	      7.64917724	     -0.68034146	      3.49581501	    -10.67474389	      3.63674773	    -10.95583176	      3.77781741	     30.23512374	      6.92494942	      3.62540949	    -35.00852538	      0.26874187	      7.06219750	     38.25518247	     -7.61919724	      1.81759254	      9.90753053
      4.11500000	     -8.79992074	      4.73621683	    360.35992451	      0.45817947	      1.39269463	     -0.99195898	      7.44062735	     -0.72475926	      3.56799055	    -10.71121536	      3.88334729	    -10.95943174	      3.81550116	     30.45483541	      6.94127276	      3.69574281	    -33.54117584	      0.12129729	      6.77059916	     38.12129860	     -7.62049167	      1.69216663	     10.04365923
      4.12000000	     -8.90924957	      4.79153032	    360.32414908	      0.46298725	      1.39220120	     -0.99173791	      7.29397192	     -0.75810158	      3.61154317	    -10.78120310	      4.11747051	    -11.00920870	      3.85047290	     30.69922334	      6.94116461	      3.76742688	    -32.03296753	     -0.00249564	      6.59704612	     38.00681338	     -7.57466233	      1.57686496	     10.12023854
      4.12500000	     -8.94914355	      4.84477580	    360.24077181	      0.46775924	      1.39174889	     -0.99154868	      7.07989826	     -0.79139135	      3.70942593	    -10.85490711	      4.40586715	    -10.93237687	      3.89605227	     30.83059286	      6.92927623	      3.84527781	    -30.45317290	     -0.19901652	      6.16761964	     37.88841002	     -7.60780346	      1.45501613	     10.35537910
      4.13000000	     -9.04513268	      4.88787645	    360.15513828	      0.47249925	      1.39118190	     -0.99132332	      6.95413012	     -0.80756138	      3.81925882	    -10.97791856	      4.68089282	    -10.90585285	      3.94715087	     31.00809648	      6.88777957	      3.90535291	    -28.84239808	     -0.39864428	      5.88203533	     37.76338979	     -7.59634742	      1.36345785	     10.48921489
      4.13500000	     -9.13837003	      4.93291278	    360.06346321	      0.47726792	      1.39058790	     -0.99109692	      6.83111962	     -0.82647125	      3.91467088	    -11.11390186	      4.96260777	    -10.86095927	      4.00675837	     31.14392261	      6.84052300	      3.97088845	    -27.16488715	     -0.60412438	      5.56061256	     37.63666379	     -7.58091786	      1.25703833	     10.66842753
